<svg width="690" height="850" viewBox="0 0 690 850" fill="none" xmlns="http://www.w3.org/2000/svg">
<path d="M625 329.8C625 433 574.2 512.4 496.92 564.68C478.92 576.84 469.92 582.92 465.48 589.88C461.08 596.76 459.52 605.88 456.52 624.04L454.12 638.16C448.84 670.08 446.16 686.04 434.96 695.52C423.76 705 407.6 705 375.24 705H270.76C238.4 705 222.24 705 211.04 695.52C199.84 686.04 197.2 670.08 191.84 638.16L189.52 624.04C186.48 605.92 185 596.84 180.6 589.96C176.2 583.08 167.16 576.92 149.12 564.6C72.68 512.32 25 432.96 25 329.8C25 161.52 159.32 25.0002 325 25.0002C345.155 24.9788 365.259 27.0161 385 31.0802" stroke="white" stroke-width="50" stroke-linecap="round" stroke-linejoin="round"/>
<path d="M405 705V745C405 782.72 405 801.56 393.28 813.28C381.56 825 362.72 825 325 825C287.28 825 268.44 825 256.72 813.28C245 801.56 245 782.72 245 745V705M525 25L535.32 52.88C548.84 89.44 555.6 107.72 568.92 121.04C582.28 134.4 600.56 141.16 637.12 154.68L665 165L637.12 175.32C600.56 188.84 582.28 195.6 568.96 208.92C555.6 222.28 548.84 240.56 535.32 277.12L525 305L514.68 277.12C501.16 240.56 494.4 222.28 481.08 208.96C467.72 195.6 449.44 188.84 412.88 175.32L385 165L412.88 154.68C449.44 141.16 467.72 134.4 481.04 121.08C494.4 107.72 501.16 89.44 514.68 52.88L525 25Z" stroke="white" stroke-width="50" stroke-linejoin="round"/>
</svg>
