<svg width="843" height="264" viewBox="0 0 843 264" fill="none" xmlns="http://www.w3.org/2000/svg">
<path d="M50.8436 234.899C50.8436 236.371 50.6524 237.7 50.2701 238.885C49.9069 240.051 49.4194 241.083 48.8077 241.982C48.196 242.88 47.4791 243.645 46.6571 244.276C45.8351 244.907 44.9844 245.423 44.105 245.824C43.2257 246.226 42.3272 246.522 41.4096 246.713C40.5112 246.904 39.6605 247 38.8576 247H10.0969V239.545H38.8576C40.2913 239.545 41.4001 239.124 42.1838 238.283C42.9867 237.442 43.3882 236.314 43.3882 234.899C43.3882 234.211 43.283 233.58 43.0728 233.007C42.8625 232.433 42.5566 231.936 42.1552 231.516C41.7728 231.095 41.2949 230.77 40.7214 230.541C40.1671 230.311 39.5458 230.197 38.8576 230.197H21.7101C20.5058 230.197 19.2059 229.986 17.8104 229.566C16.4149 229.126 15.1149 228.428 13.9106 227.473C12.7254 226.517 11.7313 225.265 10.9284 223.716C10.1447 222.168 9.75277 220.275 9.75277 218.039C9.75277 215.802 10.1447 213.919 10.9284 212.39C11.7313 210.841 12.7254 209.589 13.9106 208.633C15.1149 207.658 16.4149 206.961 17.8104 206.54C19.2059 206.1 20.5058 205.88 21.7101 205.88H47.0872V213.336H21.7101C20.2955 213.336 19.1867 213.766 18.3839 214.626C17.6001 215.487 17.2082 216.624 17.2082 218.039C17.2082 219.472 17.6001 220.61 18.3839 221.451C19.1867 222.273 20.2955 222.684 21.7101 222.684H38.8576H38.9149C39.7178 222.703 40.5685 222.818 41.467 223.028C42.3654 223.219 43.2544 223.525 44.1337 223.946C45.0322 224.366 45.8829 224.901 46.6858 225.551C47.4887 226.182 48.196 226.947 48.8077 227.845C49.4385 228.744 49.9356 229.776 50.2988 230.942C50.662 232.108 50.8436 233.427 50.8436 234.899ZM89.9272 236.534C89.9272 237.815 89.7647 238.971 89.4397 240.003C89.1148 241.017 88.6846 241.915 88.1494 242.699C87.6141 243.463 86.9928 244.123 86.2855 244.677C85.5782 245.213 84.8327 245.652 84.0489 245.996C83.2842 246.34 82.5005 246.599 81.6976 246.771C80.9138 246.924 80.1682 247 79.4609 247H66.0125C64.9802 247 63.8524 246.818 62.6289 246.455C61.4054 246.092 60.268 245.499 59.2166 244.677C58.1843 243.836 57.3145 242.756 56.6072 241.437C55.919 240.099 55.5749 238.465 55.5749 236.534V226.44C55.5749 224.529 55.919 222.913 56.6072 221.594C57.3145 220.256 58.1843 219.176 59.2166 218.354C60.268 217.513 61.4054 216.911 62.6289 216.547C63.8524 216.184 64.9802 216.003 66.0125 216.003H79.4609C81.3726 216.003 82.9975 216.347 84.3356 217.035C85.6738 217.723 86.7539 218.593 87.5759 219.644C88.3979 220.677 88.9905 221.805 89.3537 223.028C89.736 224.251 89.9272 225.389 89.9272 226.44V236.534ZM82.4718 226.498C82.4718 225.465 82.2137 224.701 81.6976 224.204C81.1814 223.707 80.4359 223.458 79.4609 223.458H66.0699C65.0758 223.458 64.3207 223.716 63.8046 224.232C63.2884 224.729 63.0303 225.465 63.0303 226.44V236.534C63.0303 237.509 63.2884 238.254 63.8046 238.77C64.3207 239.287 65.0758 239.545 66.0699 239.545H79.4609C80.4741 239.545 81.2292 239.287 81.7262 238.77C82.2233 238.254 82.4718 237.509 82.4718 236.534V226.498ZM109.913 247H106.587C105.517 247 104.37 246.818 103.146 246.455C101.942 246.092 100.814 245.499 99.7626 244.677C98.7112 243.836 97.8414 242.756 97.1532 241.437C96.465 240.099 96.1209 238.465 96.1209 236.534V202.898H103.576V236.534C103.576 237.451 103.863 238.187 104.437 238.742C105.01 239.277 105.727 239.545 106.587 239.545H109.913V247ZM148.137 243.244C148.137 243.779 148.041 244.276 147.85 244.735C147.659 245.193 147.391 245.595 147.047 245.939C146.722 246.264 146.33 246.522 145.872 246.713C145.432 246.904 144.954 247 144.438 247H127.577C126.659 247 125.675 246.895 124.624 246.685C123.591 246.474 122.569 246.14 121.555 245.681C120.542 245.203 119.558 244.61 118.602 243.903C117.665 243.177 116.843 242.307 116.136 241.294C115.429 240.261 114.855 239.076 114.415 237.738C113.995 236.4 113.785 234.89 113.785 233.207V216.003H121.24V233.207C121.24 234.182 121.402 235.062 121.727 235.846C122.072 236.61 122.53 237.27 123.104 237.824C123.677 238.378 124.346 238.809 125.111 239.114C125.895 239.401 126.736 239.545 127.634 239.545H140.681V216.003H148.137V243.244ZM185.156 247H164.94C163.908 247 162.78 246.818 161.557 246.455C160.333 246.092 159.196 245.499 158.144 244.677C157.112 243.836 156.242 242.756 155.535 241.437C154.847 240.099 154.503 238.465 154.503 236.534V226.44C154.503 225.733 154.579 224.987 154.732 224.204C154.904 223.42 155.162 222.646 155.506 221.881C155.85 221.097 156.29 220.352 156.825 219.644C157.38 218.937 158.039 218.316 158.804 217.78C159.588 217.245 160.486 216.815 161.499 216.49C162.512 216.165 163.659 216.003 164.94 216.003H185.156V223.458H164.94C163.965 223.458 163.22 223.707 162.704 224.204C162.207 224.701 161.958 225.465 161.958 226.498V236.534C161.958 237.509 162.216 238.254 162.732 238.77C163.248 239.287 164.003 239.545 164.998 239.545H185.156V247ZM198.891 209.637H191.436V202.898H198.891V209.637ZM198.891 247H191.436V216.003H198.891V247ZM239.781 236.534C239.781 237.815 239.619 238.971 239.294 240.003C238.969 241.017 238.539 241.915 238.003 242.699C237.468 243.463 236.847 244.123 236.139 244.677C235.432 245.213 234.687 245.652 233.903 245.996C233.138 246.34 232.354 246.599 231.551 246.771C230.768 246.924 230.022 247 229.315 247H215.866C214.834 247 213.706 246.818 212.483 246.455C211.259 246.092 210.122 245.499 209.071 244.677C208.038 243.836 207.168 242.756 206.461 241.437C205.773 240.099 205.429 238.465 205.429 236.534V226.44C205.429 224.529 205.773 222.913 206.461 221.594C207.168 220.256 208.038 219.176 209.071 218.354C210.122 217.513 211.259 216.911 212.483 216.547C213.706 216.184 214.834 216.003 215.866 216.003H229.315C231.227 216.003 232.851 216.347 234.19 217.035C235.528 217.723 236.608 218.593 237.43 219.644C238.252 220.677 238.844 221.805 239.208 223.028C239.59 224.251 239.781 225.389 239.781 226.44V236.534ZM232.326 226.498C232.326 225.465 232.068 224.701 231.551 224.204C231.035 223.707 230.29 223.458 229.315 223.458H215.924C214.93 223.458 214.175 223.716 213.658 224.232C213.142 224.729 212.884 225.465 212.884 226.44V236.534C212.884 237.509 213.142 238.254 213.658 238.77C214.175 239.287 214.93 239.545 215.924 239.545H229.315C230.328 239.545 231.083 239.287 231.58 238.77C232.077 238.254 232.326 237.509 232.326 236.534V226.498ZM280.499 247H273.044V229.795C273.044 228.82 272.872 227.95 272.528 227.186C272.203 226.402 271.753 225.733 271.18 225.179C270.606 224.624 269.928 224.204 269.144 223.917C268.379 223.611 267.548 223.458 266.649 223.458H253.602V247H246.147V219.702C246.147 219.186 246.242 218.708 246.434 218.268C246.625 217.809 246.892 217.417 247.237 217.092C247.581 216.748 247.982 216.481 248.441 216.289C248.9 216.098 249.387 216.003 249.903 216.003H266.707C267.643 216.003 268.628 216.108 269.66 216.318C270.712 216.528 271.744 216.872 272.757 217.35C273.789 217.809 274.764 218.402 275.682 219.128C276.619 219.836 277.441 220.705 278.148 221.738C278.874 222.751 279.448 223.926 279.868 225.265C280.289 226.603 280.499 228.113 280.499 229.795V247ZM320.386 226.268C320.386 227.3 320.204 228.419 319.841 229.623C319.478 230.808 318.885 231.917 318.063 232.949C317.26 233.963 316.199 234.813 314.88 235.501C313.58 236.19 311.994 236.534 310.12 236.534H296.672V229.451H310.12C311.133 229.451 311.917 229.145 312.471 228.534C313.026 227.903 313.303 227.128 313.303 226.211C313.303 225.236 312.988 224.471 312.357 223.917C311.745 223.362 310.999 223.085 310.12 223.085H296.672C295.659 223.085 294.875 223.401 294.32 224.032C293.766 224.643 293.489 225.408 293.489 226.326V236.734C293.489 237.729 293.795 238.503 294.406 239.057C295.037 239.611 295.811 239.889 296.729 239.889H310.12V247H296.672C295.639 247 294.521 246.818 293.317 246.455C292.132 246.092 291.023 245.509 289.991 244.706C288.977 243.884 288.127 242.823 287.438 241.523C286.75 240.204 286.406 238.608 286.406 236.734V226.268C286.406 225.236 286.588 224.127 286.951 222.942C287.314 221.738 287.897 220.629 288.7 219.616C289.522 218.583 290.583 217.723 291.883 217.035C293.202 216.347 294.798 216.003 296.672 216.003H310.12C311.152 216.003 312.261 216.184 313.446 216.547C314.651 216.911 315.759 217.503 316.773 218.325C317.805 219.128 318.665 220.189 319.353 221.508C320.042 222.808 320.386 224.395 320.386 226.268ZM355.369 236.534C355.369 237.815 355.206 238.971 354.881 240.003C354.556 241.017 354.126 241.915 353.591 242.699C353.056 243.463 352.434 244.123 351.727 244.677C351.02 245.213 350.274 245.652 349.49 245.996C348.726 246.34 347.942 246.599 347.139 246.771C346.355 246.924 345.61 247 344.903 247H324.716V239.545H344.845C345.858 239.545 346.623 239.287 347.139 238.77C347.655 238.254 347.913 237.509 347.913 236.534C347.818 234.546 346.814 233.552 344.903 233.552H333.347C331.703 233.552 330.307 233.265 329.16 232.691C328.013 232.118 327.076 231.401 326.35 230.541C325.643 229.68 325.127 228.753 324.802 227.759C324.496 226.765 324.343 225.838 324.343 224.978C324.343 223.315 324.639 221.919 325.232 220.791C325.824 219.644 326.57 218.717 327.468 218.01C328.367 217.303 329.342 216.796 330.393 216.49C331.445 216.165 332.429 216.003 333.347 216.003H351.67V223.458H333.404C333.022 223.458 332.716 223.506 332.486 223.601C332.276 223.678 332.114 223.793 331.999 223.946C331.903 224.079 331.846 224.232 331.827 224.404C331.808 224.557 331.798 224.71 331.798 224.863C331.817 225.169 331.875 225.408 331.97 225.58C332.066 225.752 332.181 225.876 332.314 225.953C332.467 226.029 332.63 226.077 332.802 226.096C332.993 226.096 333.175 226.096 333.347 226.096H344.903C346.814 226.096 348.439 226.44 349.777 227.128C351.115 227.817 352.195 228.686 353.017 229.738C353.839 230.77 354.432 231.898 354.795 233.121C355.178 234.345 355.369 235.482 355.369 236.534ZM417.077 213.336H400.646V247H393.191V213.336H376.731V205.88H417.077V213.336ZM451.83 226.268C451.83 227.3 451.649 228.419 451.286 229.623C450.922 230.808 450.33 231.917 449.508 232.949C448.705 233.963 447.644 234.813 446.325 235.501C445.025 236.19 443.438 236.534 441.565 236.534H428.116V229.451H441.565C442.578 229.451 443.362 229.145 443.916 228.534C444.471 227.903 444.748 227.128 444.748 226.211C444.748 225.236 444.432 224.471 443.802 223.917C443.19 223.362 442.444 223.085 441.565 223.085H428.116C427.103 223.085 426.32 223.401 425.765 224.032C425.211 224.643 424.934 225.408 424.934 226.326V236.734C424.934 237.729 425.239 238.503 425.851 239.057C426.482 239.611 427.256 239.889 428.174 239.889H441.565V247H428.116C427.084 247 425.966 246.818 424.762 246.455C423.576 246.092 422.468 245.509 421.435 244.706C420.422 243.884 419.571 242.823 418.883 241.523C418.195 240.204 417.851 238.608 417.851 236.734V226.268C417.851 225.236 418.033 224.127 418.396 222.942C418.759 221.738 419.342 220.629 420.145 219.616C420.967 218.583 422.028 217.723 423.328 217.035C424.647 216.347 426.243 216.003 428.116 216.003H441.565C442.597 216.003 443.706 216.184 444.891 216.547C446.095 216.911 447.204 217.503 448.217 218.325C449.25 219.128 450.11 220.189 450.798 221.508C451.486 222.808 451.83 224.395 451.83 226.268ZM486.871 247H466.655C465.623 247 464.495 246.818 463.272 246.455C462.048 246.092 460.911 245.499 459.859 244.677C458.827 243.836 457.957 242.756 457.25 241.437C456.562 240.099 456.218 238.465 456.218 236.534V226.44C456.218 225.733 456.294 224.987 456.447 224.204C456.619 223.42 456.877 222.646 457.221 221.881C457.565 221.097 458.005 220.352 458.54 219.644C459.095 218.937 459.754 218.316 460.519 217.78C461.303 217.245 462.201 216.815 463.214 216.49C464.227 216.165 465.374 216.003 466.655 216.003H486.871V223.458H466.655C465.68 223.458 464.935 223.707 464.419 224.204C463.922 224.701 463.673 225.465 463.673 226.498V236.534C463.673 237.509 463.931 238.254 464.447 238.77C464.963 239.287 465.719 239.545 466.713 239.545H486.871V247ZM527.388 247H519.933V229.795C519.933 228.82 519.761 227.95 519.417 227.186C519.092 226.402 518.642 225.733 518.069 225.179C517.495 224.624 516.817 224.204 516.033 223.917C515.268 223.611 514.437 223.458 513.538 223.458H500.491V247H493.036V219.702C493.036 219.186 493.132 218.708 493.323 218.268C493.514 217.809 493.782 217.417 494.126 217.092C494.47 216.748 494.871 216.481 495.33 216.289C495.789 216.098 496.276 216.003 496.792 216.003H513.596C514.532 216.003 515.517 216.108 516.549 216.318C517.601 216.528 518.633 216.872 519.646 217.35C520.678 217.809 521.653 218.402 522.571 219.128C523.508 219.836 524.33 220.705 525.037 221.738C525.763 222.751 526.337 223.926 526.757 225.265C527.178 226.603 527.388 228.113 527.388 229.795V247ZM567.648 236.534C567.648 237.815 567.485 238.971 567.16 240.003C566.835 241.017 566.405 241.915 565.87 242.699C565.334 243.463 564.713 244.123 564.006 244.677C563.299 245.213 562.553 245.652 561.769 245.996C561.005 246.34 560.221 246.599 559.418 246.771C558.634 246.924 557.889 247 557.181 247H543.733C542.701 247 541.573 246.818 540.349 246.455C539.126 246.092 537.988 245.499 536.937 244.677C535.905 243.836 535.035 242.756 534.328 241.437C533.639 240.099 533.295 238.465 533.295 236.534V226.44C533.295 224.529 533.639 222.913 534.328 221.594C535.035 220.256 535.905 219.176 536.937 218.354C537.988 217.513 539.126 216.911 540.349 216.547C541.573 216.184 542.701 216.003 543.733 216.003H557.181C559.093 216.003 560.718 216.347 562.056 217.035C563.394 217.723 564.474 218.593 565.296 219.644C566.118 220.677 566.711 221.805 567.074 223.028C567.456 224.251 567.648 225.389 567.648 226.44V236.534ZM560.192 226.498C560.192 225.465 559.934 224.701 559.418 224.204C558.902 223.707 558.156 223.458 557.181 223.458H543.79C542.796 223.458 542.041 223.716 541.525 224.232C541.009 224.729 540.751 225.465 540.751 226.44V236.534C540.751 237.509 541.009 238.254 541.525 238.77C542.041 239.287 542.796 239.545 543.79 239.545H557.181C558.194 239.545 558.95 239.287 559.447 238.77C559.944 238.254 560.192 237.509 560.192 236.534V226.498ZM587.634 247H584.308C583.237 247 582.09 246.818 580.867 246.455C579.662 246.092 578.534 245.499 577.483 244.677C576.432 243.836 575.562 242.756 574.874 241.437C574.185 240.099 573.841 238.465 573.841 236.534V202.898H581.297V236.534C581.297 237.451 581.583 238.187 582.157 238.742C582.73 239.277 583.447 239.545 584.308 239.545H587.634V247ZM626.144 236.534C626.144 237.815 625.981 238.971 625.656 240.003C625.331 241.017 624.901 241.915 624.366 242.699C623.831 243.463 623.21 244.123 622.502 244.677C621.795 245.213 621.049 245.652 620.266 245.996C619.501 246.34 618.717 246.599 617.914 246.771C617.13 246.924 616.385 247 615.678 247H602.229C601.197 247 600.069 246.818 598.846 246.455C597.622 246.092 596.485 245.499 595.433 244.677C594.401 243.836 593.531 242.756 592.824 241.437C592.136 240.099 591.792 238.465 591.792 236.534V226.44C591.792 224.529 592.136 222.913 592.824 221.594C593.531 220.256 594.401 219.176 595.433 218.354C596.485 217.513 597.622 216.911 598.846 216.547C600.069 216.184 601.197 216.003 602.229 216.003H615.678C617.589 216.003 619.214 216.347 620.552 217.035C621.89 217.723 622.971 218.593 623.793 219.644C624.615 220.677 625.207 221.805 625.57 223.028C625.953 224.251 626.144 225.389 626.144 226.44V236.534ZM618.688 226.498C618.688 225.465 618.43 224.701 617.914 224.204C617.398 223.707 616.653 223.458 615.678 223.458H602.287C601.292 223.458 600.537 223.716 600.021 224.232C599.505 224.729 599.247 225.465 599.247 226.44V236.534C599.247 237.509 599.505 238.254 600.021 238.77C600.537 239.287 601.292 239.545 602.287 239.545H615.678C616.691 239.545 617.446 239.287 617.943 238.77C618.44 238.254 618.688 237.509 618.688 236.534V226.498ZM624.194 206.655L609.226 212.017L607.247 207.716L621.04 199.687L624.194 206.655ZM666.231 249.982C666.231 251.263 666.069 252.41 665.744 253.423C665.419 254.455 664.989 255.354 664.453 256.119C663.918 256.902 663.297 257.562 662.589 258.097C661.882 258.651 661.137 259.101 660.353 259.445C659.588 259.789 658.804 260.037 658.001 260.19C657.218 260.362 656.472 260.448 655.765 260.448H642.316V252.993H655.765C656.778 252.993 657.533 252.735 658.03 252.219C658.527 251.703 658.776 250.957 658.776 249.982V226.44C658.776 225.465 658.527 224.729 658.03 224.232C657.533 223.716 656.778 223.458 655.765 223.458H642.316C641.399 223.458 640.672 223.745 640.137 224.318C639.602 224.873 639.334 225.58 639.334 226.44V236.534C639.334 237.509 639.592 238.254 640.108 238.77C640.625 239.287 641.38 239.545 642.374 239.545H655.765V247H642.316C641.609 247 640.864 246.924 640.08 246.771C639.296 246.599 638.512 246.34 637.728 245.996C636.964 245.652 636.228 245.213 635.521 244.677C634.813 244.123 634.192 243.463 633.657 242.699C633.121 241.915 632.691 241.017 632.366 240.003C632.041 238.971 631.879 237.815 631.879 236.534V226.44C631.879 225.733 631.955 224.987 632.108 224.204C632.28 223.42 632.538 222.646 632.882 221.881C633.227 221.097 633.666 220.352 634.201 219.644C634.756 218.937 635.415 218.316 636.18 217.78C636.964 217.245 637.862 216.815 638.875 216.49C639.889 216.165 641.036 216.003 642.316 216.003H655.765C656.472 216.003 657.218 216.089 658.001 216.261C658.804 216.414 659.588 216.662 660.353 217.006C661.137 217.35 661.882 217.8 662.589 218.354C663.297 218.889 663.918 219.549 664.453 220.333C664.989 221.097 665.419 221.986 665.744 222.999C666.069 224.012 666.231 225.159 666.231 226.44V249.982ZM680.626 209.637H673.17V202.898H680.626V209.637ZM680.626 247H673.17V216.003H680.626V247ZM717.817 247H697.601C696.569 247 695.441 246.818 694.218 246.455C692.994 246.092 691.857 245.499 690.805 244.677C689.773 243.836 688.903 242.756 688.196 241.437C687.508 240.099 687.164 238.465 687.164 236.534V226.44C687.164 225.733 687.24 224.987 687.393 224.204C687.565 223.42 687.823 222.646 688.167 221.881C688.511 221.097 688.951 220.352 689.486 219.644C690.041 218.937 690.7 218.316 691.465 217.78C692.249 217.245 693.147 216.815 694.16 216.49C695.173 216.165 696.32 216.003 697.601 216.003H717.817V223.458H697.601C696.626 223.458 695.881 223.707 695.365 224.204C694.868 224.701 694.619 225.465 694.619 226.498V236.534C694.619 237.509 694.877 238.254 695.393 238.77C695.909 239.287 696.664 239.545 697.659 239.545H717.817V247ZM755.753 236.734C755.753 237.767 755.572 238.885 755.209 240.089C754.845 241.275 754.253 242.383 753.431 243.416C752.628 244.429 751.567 245.28 750.248 245.968C748.948 246.656 747.361 247 745.488 247H732.04C731.007 247 729.889 246.818 728.685 246.455C727.499 246.092 726.391 245.509 725.358 244.706C724.345 243.884 723.494 242.823 722.806 241.523C722.118 240.204 721.774 238.608 721.774 236.734C721.774 235.702 721.956 234.584 722.319 233.38C722.682 232.175 723.265 231.066 724.068 230.053C724.89 229.021 725.951 228.161 727.251 227.473C728.57 226.784 730.166 226.44 732.04 226.44H745.488V233.552H732.04C731.026 233.552 730.243 233.867 729.688 234.498C729.134 235.11 728.857 235.874 728.857 236.792C728.857 237.767 729.172 238.531 729.803 239.086C730.453 239.621 731.218 239.889 732.097 239.889H745.488C746.501 239.889 747.285 239.583 747.839 238.971C748.394 238.359 748.671 237.595 748.671 236.677V226.268C748.671 225.293 748.365 224.519 747.753 223.946C747.161 223.372 746.406 223.085 745.488 223.085H729.115V216.003H745.488C746.52 216.003 747.629 216.184 748.814 216.547C750.019 216.911 751.127 217.503 752.14 218.325C753.173 219.128 754.033 220.189 754.721 221.508C755.409 222.808 755.753 224.395 755.753 226.268V236.734ZM792.084 236.534C792.084 237.815 791.922 238.971 791.597 240.003C791.272 241.017 790.842 241.915 790.306 242.699C789.771 243.463 789.15 244.123 788.443 244.677C787.735 245.213 786.99 245.652 786.206 245.996C785.441 246.34 784.658 246.599 783.855 246.771C783.071 246.924 782.325 247 781.618 247H761.431V239.545H781.561C782.574 239.545 783.338 239.287 783.855 238.77C784.371 238.254 784.629 237.509 784.629 236.534C784.533 234.546 783.53 233.552 781.618 233.552H770.062C768.418 233.552 767.023 233.265 765.876 232.691C764.729 232.118 763.792 231.401 763.065 230.541C762.358 229.68 761.842 228.753 761.517 227.759C761.211 226.765 761.058 225.838 761.058 224.978C761.058 223.315 761.355 221.919 761.947 220.791C762.54 219.644 763.285 218.717 764.184 218.01C765.082 217.303 766.057 216.796 767.109 216.49C768.16 216.165 769.145 216.003 770.062 216.003H788.385V223.458H770.119C769.737 223.458 769.431 223.506 769.202 223.601C768.992 223.678 768.829 223.793 768.714 223.946C768.619 224.079 768.561 224.232 768.542 224.404C768.523 224.557 768.514 224.71 768.514 224.863C768.533 225.169 768.59 225.408 768.686 225.58C768.781 225.752 768.896 225.876 769.03 225.953C769.183 226.029 769.345 226.077 769.517 226.096C769.708 226.096 769.89 226.096 770.062 226.096H781.618C783.53 226.096 785.155 226.44 786.493 227.128C787.831 227.817 788.911 228.686 789.733 229.738C790.555 230.77 791.148 231.898 791.511 233.121C791.893 234.345 792.084 235.482 792.084 236.534Z" fill="#183A51"/>
<path d="M152.852 170H130.848V98.2773L92.1309 166.389C91.179 168.124 89.8353 169.44 88.0996 170.336C86.4199 171.232 84.6003 171.68 82.6406 171.68C80.737 171.68 78.9453 171.232 77.2656 170.336C75.6419 169.44 74.3542 168.124 73.4023 166.389L34.5176 98.2773V170H12.6816V58.8887C12.6816 56.3691 13.4095 54.1296 14.8652 52.1699C16.377 50.2103 18.3366 48.8945 20.7441 48.2227C21.9199 47.9427 23.0957 47.8587 24.2715 47.9707C25.4473 48.0267 26.5671 48.2786 27.6309 48.7266C28.7507 49.1185 29.7585 49.7064 30.6543 50.4902C31.5501 51.2181 32.306 52.1139 32.9219 53.1777L82.6406 139.598L132.359 53.1777C133.647 51.0501 135.411 49.5384 137.65 48.6426C139.946 47.7467 142.326 47.6068 144.789 48.2227C147.141 48.8945 149.072 50.2103 150.584 52.1699C152.096 54.1296 152.852 56.3691 152.852 58.8887V170ZM274.629 158.998C274.629 160.566 274.349 162.021 273.789 163.365C273.229 164.709 272.445 165.885 271.438 166.893C270.486 167.844 269.338 168.6 267.994 169.16C266.706 169.72 265.307 170 263.795 170H214.412C211.725 170 208.841 169.692 205.762 169.076C202.738 168.46 199.743 167.48 196.775 166.137C193.808 164.737 190.924 163.001 188.125 160.93C185.382 158.802 182.974 156.255 180.902 153.287C178.831 150.264 177.151 146.792 175.863 142.873C174.632 138.954 174.016 134.531 174.016 129.604V79.2129H195.852V129.604C195.852 132.459 196.327 135.035 197.279 137.33C198.287 139.57 199.631 141.501 201.311 143.125C202.99 144.749 204.95 146.008 207.189 146.904C209.485 147.744 211.949 148.164 214.58 148.164H252.793V79.2129H274.629V158.998ZM374.57 101.049H325.439C322.472 101.049 320.232 101.805 318.721 103.316C317.209 104.772 316.453 106.928 316.453 109.783V170H294.617V109.783C294.617 106.032 295.093 102.673 296.045 99.7051C296.997 96.7376 298.257 94.1341 299.824 91.8945C301.448 89.599 303.296 87.6673 305.367 86.0996C307.439 84.4759 309.594 83.1602 311.834 82.1523C314.13 81.1445 316.425 80.4167 318.721 79.9688C321.072 79.4648 323.256 79.2129 325.271 79.2129H374.57V101.049ZM411.188 60.5684H389.352V40.832H411.188V60.5684ZM411.188 170H389.352V79.2129H411.188V170ZM543.463 71.4023H495.34V170H473.504V71.4023H425.297V49.5664H543.463V71.4023ZM658.605 120.785H589.654V98.7812H658.605V120.785ZM668.432 170H589.654C586.631 170 583.327 169.468 579.744 168.404C576.161 167.34 572.829 165.605 569.75 163.197C566.727 160.734 564.179 157.57 562.107 153.707C560.092 149.788 559.084 145.001 559.084 139.346V60.5684C559.084 59.0566 559.364 57.6289 559.924 56.2852C560.484 54.9414 561.24 53.7656 562.191 52.7578C563.199 51.75 564.375 50.9661 565.719 50.4062C567.062 49.8464 568.518 49.5664 570.086 49.5664H668.432V71.4023H580.92V139.346C580.92 142.201 581.676 144.385 583.188 145.896C584.699 147.408 586.911 148.164 589.822 148.164H668.432V170ZM796.592 170H717.814C715.799 170 713.615 169.776 711.264 169.328C708.968 168.824 706.673 168.068 704.377 167.061C702.137 166.053 699.982 164.765 697.91 163.197C695.839 161.574 693.991 159.642 692.367 157.402C690.799 155.107 689.54 152.475 688.588 149.508C687.636 146.484 687.16 143.097 687.16 139.346V80.2207C687.16 78.2051 687.384 76.0495 687.832 73.7539C688.336 71.4023 689.092 69.1068 690.1 66.8672C691.107 64.5716 692.423 62.388 694.047 60.3164C695.671 58.2448 697.602 56.4251 699.842 54.8574C702.137 53.2337 704.769 51.946 707.736 50.9941C710.704 50.0423 714.063 49.5664 717.814 49.5664H796.592V71.4023H717.814C714.959 71.4023 712.775 72.1582 711.264 73.6699C709.752 75.1816 708.996 77.4212 708.996 80.3887V139.346C708.996 142.145 709.752 144.329 711.264 145.896C712.831 147.408 715.015 148.164 717.814 148.164H796.592V170Z" fill="#183A51"/>
</svg>
