<svg width="850" height="850" viewBox="0 0 850 850" fill="none" xmlns="http://www.w3.org/2000/svg">
<path d="M380.641 425.048C380.641 436.836 385.322 448.14 393.656 456.475C401.989 464.81 413.291 469.493 425.077 469.493C436.862 469.493 448.164 464.81 456.498 456.475C464.831 448.14 469.513 436.836 469.513 425.048C469.513 413.261 464.831 401.956 456.498 393.621C448.164 385.286 436.862 380.604 425.077 380.604C413.291 380.604 401.989 385.286 393.656 393.621C385.322 401.956 380.641 413.261 380.641 425.048Z" stroke="white" stroke-width="50" stroke-linecap="round" stroke-linejoin="round"/>
<path d="M425.076 202.826C381.133 202.826 338.177 215.86 301.639 240.278C265.102 264.696 236.625 299.402 219.808 340.008C202.992 380.614 198.592 425.295 207.165 468.402C215.738 511.509 236.898 551.105 267.971 582.183C299.043 613.261 338.632 634.426 381.731 643.001C424.829 651.575 469.502 647.174 510.101 630.355C550.699 613.535 585.398 585.053 609.812 548.508C634.225 511.964 647.256 469 647.256 425.048" stroke="white" stroke-width="50" stroke-linecap="round" stroke-linejoin="round"/>
<path d="M469.511 27.4941C387.13 18.2502 303.912 34.8398 231.37 74.9683C158.827 115.097 100.545 176.781 64.5856 251.488C28.6259 326.194 16.7659 410.232 30.6462 491.975C44.5266 573.718 83.4611 649.127 142.064 707.771C200.667 766.415 276.042 805.395 357.763 819.319C439.484 833.243 523.512 821.423 598.222 785.494C672.933 749.565 734.635 691.303 774.792 618.767C814.95 546.231 831.578 463.006 822.378 380.605" stroke="white" stroke-width="50" stroke-linecap="round" stroke-linejoin="round"/>
<path d="M558.384 291.715V158.382L691.692 25.0488V158.382H825L691.692 291.715H558.384ZM558.384 291.715L425.076 425.048" stroke="white" stroke-width="50" stroke-linecap="round" stroke-linejoin="round"/>
</svg>
