<svg width="903" height="858" viewBox="0 0 903 858" fill="none" xmlns="http://www.w3.org/2000/svg">
<path d="M429.359 743.279L92.8791 410.056C70.6852 388.46 53.2033 362.504 41.5344 333.821C29.8655 305.139 24.2623 274.351 25.0778 243.396C25.8932 212.442 33.1096 181.991 46.2725 153.962C59.4353 125.934 78.2595 100.934 101.56 80.5367C124.86 60.1398 152.131 44.7878 181.657 35.4475C211.182 26.1072 242.322 22.9809 273.115 26.2655C303.908 29.55 333.687 39.1743 360.577 54.5323C387.468 69.8902 410.887 90.6491 429.359 115.502C447.308 91.8714 469.767 72.0368 495.435 57.1469C521.104 42.257 549.472 32.6077 578.896 28.7579C608.321 24.9082 638.217 26.9345 666.852 34.7196C695.488 42.5046 722.295 55.8936 745.719 74.111C769.143 92.3284 788.72 115.012 803.314 140.848C817.909 166.684 827.233 195.159 830.744 224.624C834.255 254.088 831.885 283.956 823.771 312.498C815.656 341.04 801.959 367.689 783.471 390.9M743.408 833V563.837M743.408 563.837L878 698.419M743.408 563.837L608.816 698.419" stroke="white" stroke-width="50" stroke-linecap="round" stroke-linejoin="round"/>
</svg>
